<?xml version="1.0" encoding="utf-8"?>
<!-- Generator: Adobe Illustrator 26.4.1, SVG Export Plug-In . SVG Version: 6.00 Build 0)  -->
<svg version="1.1" xmlns="http://www.w3.org/2000/svg" xmlns:xlink="http://www.w3.org/1999/xlink" x="0px" y="0px"
	 viewBox="0 0 250 250" style="enable-background:new 0 0 250 250;" xml:space="preserve">
<style type="text/css">
	.st0{fill:#B22240;}
	.st1{fill:none;stroke:#B22240;stroke-width:3;stroke-miterlimit:10;}
	.st2{display:none;}
</style>
<g id="Layer1">
	<g>
		<path class="st0" d="M125,19c58.4,0,106,47.6,106,106s-47.6,106-106,106S19,183.4,19,125S66.6,19,125,19 M125,12
			C62.6,12,12,62.6,12,125s50.6,113,113,113s113-50.6,113-113S187.4,12,125,12L125,12z"/>
	</g>
	<g id="letters">
		<path class="st1" d="M31.5,139.8l17.9-1.1c0.4,2.9,1.2,5.1,2.4,6.6c1.9,2.5,4.7,3.7,8.3,3.7c2.7,0,4.8-0.6,6.2-1.9
			c1.5-1.3,2.2-2.7,2.2-4.4c0-1.6-0.7-3-2.1-4.2c-1.4-1.2-4.6-2.4-9.6-3.5c-8.2-1.9-14.1-4.3-17.6-7.4c-3.5-3.1-5.3-7-5.3-11.7
			c0-3.1,0.9-6.1,2.7-8.9c1.8-2.8,4.5-5,8.2-6.6c3.6-1.6,8.6-2.4,15-2.4c7.8,0,13.7,1.4,17.8,4.3c4.1,2.9,6.5,7.5,7.3,13.8l-17.7,1
			c-0.5-2.7-1.5-4.7-3-6c-1.5-1.2-3.6-1.9-6.2-1.9c-2.2,0-3.8,0.5-4.9,1.4c-1.1,0.9-1.7,2.1-1.7,3.4c0,1,0.5,1.8,1.4,2.6
			c0.9,0.8,3,1.6,6.3,2.2c8.2,1.8,14.1,3.6,17.7,5.4c3.6,1.8,6.1,4.1,7.8,6.7c1.6,2.7,2.4,5.7,2.4,9c0,3.9-1.1,7.5-3.2,10.8
			c-2.2,3.3-5.2,5.8-9.1,7.5c-3.9,1.7-8.8,2.6-14.7,2.6c-10.4,0-17.5-2-21.5-6C34.3,151,32,146,31.5,139.8z"/>
		<path class="st1" d="M90.2,99.1h19.7l13.7,43.8l13.5-43.8h19.1L133.6,160h-20.4L90.2,99.1z"/>
		<path class="st1" d="M190,137.9v-12.7h29.1v25.9c-5.6,3.8-10.5,6.4-14.8,7.7s-9.3,2.1-15.2,2.1c-7.2,0-13.1-1.2-17.7-3.7
			c-4.6-2.5-8.1-6.1-10.6-11c-2.5-4.9-3.8-10.5-3.8-16.8c0-6.6,1.4-12.4,4.1-17.3s6.8-8.6,12-11.2c4.1-2,9.7-2.9,16.6-2.9
			c6.7,0,11.8,0.6,15.1,1.8c3.3,1.2,6.1,3.1,8.3,5.7c2.2,2.6,3.9,5.8,5,9.7l-18.1,3.2c-0.7-2.3-2-4.1-3.8-5.3
			c-1.8-1.2-4.1-1.8-6.8-1.8c-4.1,0-7.4,1.4-9.9,4.3s-3.7,7.4-3.7,13.6c0,6.6,1.2,11.3,3.7,14.1c2.5,2.8,5.9,4.2,10.4,4.2
			c2.1,0,4.1-0.3,6-0.9c1.9-0.6,4.1-1.6,6.6-3.1v-5.7H190z"/>
	</g>
</g>
<g id="text" class="st2">
	
		<text transform="matrix(1 0 0 1 254.5356 85.9521)" style="display:inline;fill:none;stroke:#000000;stroke-width:3;stroke-miterlimit:10; font-family:'Arial-Black'; font-size:85.0278px;">SVG</text>
</g>
</svg>
