<?xml version="1.0" encoding="UTF-8"?>
<svg xmlns="http://www.w3.org/2000/svg" viewBox="0 0 471.7 408.5">
  <defs>
    <style>
      .cls-1 {
        stroke: #231f20;
      }

      .cls-1, .cls-2 {
        fill: none;
        stroke-miterlimit: 10;
        stroke-width: 4px;
      }

      .cls-2 {
        stroke: #a7a9ac;
      }
    </style>
  </defs>
  <g id="Layer_1" data-name="Layer 1">
    <polyline class="cls-2" points="119.08 2 352.62 2 469.39 204.25 352.62 406.5 119.08 406.5 2.31 204.25 111.93 14.38 345.47 14.38 455.09 204.25 345.47 394.12 126.23 394.12 16.61 204.25 118.71 27.4 337.95 27.4 440.05 204.25 337.95 381.1 133.74 381.1 31.64 204.25 125.81 41.15 330.02 41.15 424.18 204.25 330.02 367.35 141.68 367.35 47.51 204.25 132.38 57.25 322.24 57.25 408.63 204.25 322.24 351.25 149.46 351.25 63.07 204.25 141.95 70.02 314.73 70.02 393.62 204.25 314.73 338.48 156.96 338.48 78.08 204.25 148.69 84.09 306.46 84.09 377.08 204.25 306.46 324.41 165.23 324.41 94.62 204.25 157.5 97.25 298.73 97.25 361.61 204.25 298.73 311.25 172.96 311.25 110.08 204.25 164.26 112.07 290.02 112.07 344.2 204.25 290.02 296.43 181.67 296.43 127.5 204.25 173.27 126.37 281.61 126.37 327.38 204.25 281.61 282.13 190.08 282.13 144.31 204.25 181.87 140.35 273.4 140.35 310.96 204.25 273.4 268.15 198.29 268.15 160.74 204.25 189.72 154.94 264.83 154.94 293.8 204.25 264.83 253.56 206.87 253.56 177.89 204.25 198.91 168.49 256.87 168.49 277.88 204.25 256.87 240.01 214.83 240.01 193.81 204.25 206.62 182.46 248.65 182.46 261.46 204.25 248.65 226.04 223.04 226.04 210.24 204.25 216.61 193.4 241.17 193.4 246.5 202.46 241.17 211.52 230.52 211.52 225.2 202.46"/>
  </g>
  <g id="Layer_2" data-name="Layer 2">
    <polyline class="cls-1" points="119.08 2 352.62 2 469.39 204.25 352.62 406.5 119.08 406.5 2.31 204.25 111.93 14.38 345.47 14.38 455.09 204.25 345.47 394.12 126.23 394.12 16.61 204.25 118.71 27.4 337.95 27.4 440.05 204.25 337.95 381.1 133.74 381.1 31.64 204.25 125.81 41.15 330.02 41.15 424.18 204.25 330.02 367.35 141.68 367.35 47.51 204.25 132.38 57.25 322.24 57.25 408.63 204.25 322.24 351.25 149.46 351.25 63.07 204.25 141.95 70.02 314.73 70.02 393.62 204.25 314.73 338.48 156.96 338.48 78.08 204.25 148.69 84.09 306.46 84.09 377.08 204.25 306.46 324.41 165.23 324.41 94.62 204.25 157.5 97.25 298.73 97.25 361.61 204.25 298.73 311.25 172.96 311.25 110.08 204.25 164.26 112.07 290.02 112.07 344.2 204.25 290.02 296.43 181.67 296.43 127.5 204.25 173.27 126.37 281.61 126.37 327.38 204.25 281.61 282.13 190.08 282.13 144.31 204.25 181.87 140.35 273.4 140.35 310.96 204.25 273.4 268.15 198.29 268.15 160.74 204.25 189.72 154.94 264.83 154.94 293.8 204.25 264.83 253.56 206.87 253.56 177.89 204.25 198.91 168.49 256.87 168.49 277.88 204.25 256.87 240.01 214.83 240.01 193.81 204.25 206.62 182.46 248.65 182.46 261.46 204.25 248.65 226.04 223.04 226.04 210.24 204.25 216.61 193.4 241.17 193.4 246.5 202.46 241.17 211.52 230.52 211.52 225.2 202.46"/>
  </g>
</svg>