<?xml version="1.0" encoding="utf-8"?>
<!-- Generator: Adobe Illustrator 26.4.1, SVG Export Plug-In . SVG Version: 6.00 Build 0)  -->
<svg version="1.1" xmlns="http://www.w3.org/2000/svg" xmlns:xlink="http://www.w3.org/1999/xlink" x="0px" y="0px"
	 viewBox="0 0 500 500" style="enable-background:new 0 0 500 500;" xml:space="preserve">
<style type="text/css">
	.st0{display:none;}
	.st1{display:inline;fill:none;stroke:#231F20;stroke-miterlimit:10;}
	.st2{fill:none;stroke:#A7A9AC;stroke-width:4;stroke-miterlimit:10;}
	.st3{fill:none;stroke:#231F20;stroke-width:4;stroke-miterlimit:10;}
</style>
<g id="background" class="st0">
	<polygon class="st1" points="366.77,47.75 133.23,47.75 16.46,250 133.23,452.25 366.77,452.25 483.54,250 	"/>
	<polygon class="st1" points="359.62,60.13 140.38,60.13 30.76,250 140.38,439.87 359.62,439.87 469.24,250 	"/>
	<polygon class="st1" points="352.1,73.15 147.9,73.15 45.79,250 147.9,426.85 352.1,426.85 454.21,250 	"/>
	<polygon class="st1" points="344.17,86.9 155.83,86.9 61.66,250 155.83,413.1 344.17,413.1 438.34,250 	"/>
	<polygon class="st1" points="336.39,103 163.61,103 77.22,250 163.61,397 336.39,397 422.78,250 	"/>
	<polygon class="st1" points="328.88,115.77 171.12,115.77 92.23,250 171.12,384.23 328.88,384.23 407.77,250 	"/>
	<polygon class="st1" points="320.61,129.84 179.39,129.84 108.77,250 179.39,370.16 320.61,370.16 391.23,250 	"/>
	<polygon class="st1" points="312.88,143 187.12,143 124.23,250 187.12,357 312.88,357 375.77,250 	"/>
	<polygon class="st1" points="304.17,157.82 195.83,157.82 141.65,250 195.83,342.18 304.17,342.18 358.35,250 	"/>
	<polygon class="st1" points="295.77,172.12 204.23,172.12 158.47,250 204.23,327.88 295.77,327.88 341.53,250 	"/>
	<polygon class="st1" points="287.55,186.1 212.45,186.1 174.89,250 212.45,313.9 287.55,313.9 325.11,250 	"/>
	<polygon class="st1" points="278.98,200.69 221.02,200.69 192.05,250 221.02,299.31 278.98,299.31 307.95,250 	"/>
	<polygon class="st1" points="271.02,214.24 228.98,214.24 207.96,250 228.98,285.76 271.02,285.76 292.04,250 	"/>
	<polygon class="st1" points="262.81,228.21 237.19,228.21 224.39,250 237.19,271.79 262.81,271.79 275.61,250 	"/>
	<polygon class="st1" points="255.33,239.15 244.67,239.15 239.35,248.21 244.67,257.27 255.33,257.27 260.65,248.21 	"/>
</g>
<g id="Layer_1">
	<polyline class="st2" points="133.23,47.75 366.77,47.75 483.54,250 366.77,452.25 133.23,452.25 16.46,250 126.08,60.13 
		359.62,60.13 469.24,250 359.62,439.87 140.38,439.87 30.76,250 132.86,73.15 352.1,73.15 454.21,250 352.1,426.85 147.9,426.85 
		45.79,250 139.96,86.9 344.17,86.9 438.34,250 344.17,413.1 155.83,413.1 61.66,250 146.54,103 336.39,103 422.78,250 336.39,397 
		163.61,397 77.22,250 156.1,115.77 328.88,115.77 407.77,250 328.88,384.23 171.12,384.23 92.23,250 162.84,129.84 320.61,129.84 
		391.23,250 320.61,370.16 179.39,370.16 108.77,250 171.65,143 312.88,143 375.77,250 312.88,357 187.12,357 124.23,250 
		178.41,157.82 304.17,157.82 358.35,250 304.17,342.18 195.83,342.18 141.65,250 187.42,172.12 295.77,172.12 341.53,250 
		295.77,327.88 204.23,327.88 158.47,250 196.02,186.1 287.55,186.1 325.11,250 287.55,313.9 212.45,313.9 174.89,250 
		203.87,200.69 278.98,200.69 307.95,250 278.98,299.31 221.02,299.31 192.05,250 213.06,214.24 271.02,214.24 292.04,250 
		271.02,285.76 228.98,285.76 207.96,250 220.77,228.21 262.81,228.21 275.61,250 262.81,271.79 237.19,271.79 224.39,250 
		230.76,239.15 255.33,239.15 260.65,248.21 255.33,257.27 244.67,257.27 239.35,248.21 	"/>
</g>
<g id="Layer_2">
	<polyline class="st3" points="133.23,47.75 366.77,47.75 483.54,250 366.77,452.25 133.23,452.25 16.46,250 126.08,60.13 
		359.62,60.13 469.24,250 359.62,439.87 140.38,439.87 30.76,250 132.86,73.15 352.1,73.15 454.21,250 352.1,426.85 147.9,426.85 
		45.79,250 139.96,86.9 344.17,86.9 438.34,250 344.17,413.1 155.83,413.1 61.66,250 146.54,103 336.39,103 422.78,250 336.39,397 
		163.61,397 77.22,250 156.1,115.77 328.88,115.77 407.77,250 328.88,384.23 171.12,384.23 92.23,250 162.84,129.84 320.61,129.84 
		391.23,250 320.61,370.16 179.39,370.16 108.77,250 171.65,143 312.88,143 375.77,250 312.88,357 187.12,357 124.23,250 
		178.41,157.82 304.17,157.82 358.35,250 304.17,342.18 195.83,342.18 141.65,250 187.42,172.12 295.77,172.12 341.53,250 
		295.77,327.88 204.23,327.88 158.47,250 196.02,186.1 287.55,186.1 325.11,250 287.55,313.9 212.45,313.9 174.89,250 
		203.87,200.69 278.98,200.69 307.95,250 278.98,299.31 221.02,299.31 192.05,250 213.06,214.24 271.02,214.24 292.04,250 
		271.02,285.76 228.98,285.76 207.96,250 220.77,228.21 262.81,228.21 275.61,250 262.81,271.79 237.19,271.79 224.39,250 
		230.76,239.15 255.33,239.15 260.65,248.21 255.33,257.27 244.67,257.27 239.35,248.21 	"/>
</g>
</svg>
